<mxfile host="app.diagrams.net" modified="2023-12-14T15:32:35.831Z" agent="Mozilla/5.0 (Macintosh; Intel Mac OS X 10_15_7) AppleWebKit/605.1.15 (KHTML, like Gecko) Version/16.3 Safari/605.1.15" etag="M9pOClIX3Dy9IvS8FjhA" version="22.1.8" type="github">
  <diagram name="Page-1" id="K_Qt4DI9bpC8qEKgOKCN">
    <mxGraphModel dx="1828" dy="621" grid="1" gridSize="10" guides="1" tooltips="1" connect="1" arrows="1" fold="1" page="1" pageScale="1" pageWidth="850" pageHeight="1100" math="1" shadow="0">
      <root>
        <mxCell id="0" />
        <mxCell id="1" parent="0" />
        <mxCell id="llaD-ics2yoDDrk_v6Qx-1" value="" style="rounded=0;whiteSpace=wrap;html=1;" vertex="1" parent="1">
          <mxGeometry x="450" y="591" width="290" height="89" as="geometry" />
        </mxCell>
        <mxCell id="llaD-ics2yoDDrk_v6Qx-2" value="" style="shape=image;verticalLabelPosition=bottom;labelBackgroundColor=default;verticalAlign=top;aspect=fixed;imageAspect=0;image=https://i.etsystatic.com/19934258/r/il/329e2e/1883115379/il_570xN.1883115379_aqot.jpg;" vertex="1" parent="1">
          <mxGeometry x="540" y="170" width="80" height="80" as="geometry" />
        </mxCell>
        <mxCell id="llaD-ics2yoDDrk_v6Qx-3" value="Classical Verifier" style="rounded=0;whiteSpace=wrap;html=1;" vertex="1" parent="1">
          <mxGeometry x="490" y="270" width="110" height="30" as="geometry" />
        </mxCell>
        <mxCell id="llaD-ics2yoDDrk_v6Qx-4" value="" style="image;html=1;image=img/lib/clip_art/computers/Laptop_128x128.png" vertex="1" parent="1">
          <mxGeometry x="470" y="179" width="80" height="80" as="geometry" />
        </mxCell>
        <mxCell id="llaD-ics2yoDDrk_v6Qx-5" value="" style="sketch=0;outlineConnect=0;fontColor=#232F3E;gradientColor=none;fillColor=#ED7100;strokeColor=none;dashed=0;verticalLabelPosition=bottom;verticalAlign=top;align=center;html=1;fontSize=12;fontStyle=0;aspect=fixed;pointerEvents=1;shape=mxgraph.aws4.braket_qpu;" vertex="1" parent="1">
          <mxGeometry x="180" y="180" width="78" height="78" as="geometry" />
        </mxCell>
        <mxCell id="llaD-ics2yoDDrk_v6Qx-6" value="Quantum Prover" style="rounded=0;whiteSpace=wrap;html=1;" vertex="1" parent="1">
          <mxGeometry x="164" y="270" width="110" height="30" as="geometry" />
        </mxCell>
        <mxCell id="llaD-ics2yoDDrk_v6Qx-7" value="" style="endArrow=classic;html=1;rounded=0;" edge="1" parent="1">
          <mxGeometry width="50" height="50" relative="1" as="geometry">
            <mxPoint x="300" y="470" as="sourcePoint" />
            <mxPoint x="440" y="470" as="targetPoint" />
          </mxGeometry>
        </mxCell>
        <mxCell id="llaD-ics2yoDDrk_v6Qx-8" value="QMA Batch \( x_1, \cdots, x_k \)" style="rounded=0;whiteSpace=wrap;html=1;" vertex="1" parent="1">
          <mxGeometry x="309" y="160" width="110" height="30" as="geometry" />
        </mxCell>
        <mxCell id="llaD-ics2yoDDrk_v6Qx-9" value="Prover generates quantum proofs:&lt;br&gt;\( |\pi_j\rangle \leftarrow&amp;nbsp;\textcolor{red}{&lt;br&gt;P_{FHM}}(x_j, |\phi_j\rangle^{\otimes k(\lambda)}) \) for all \( j \in [k]\)" style="text;html=1;align=center;verticalAlign=middle;resizable=0;points=[];autosize=1;strokeColor=none;fillColor=none;" vertex="1" parent="1">
          <mxGeometry x="-20" y="310" width="390" height="60" as="geometry" />
        </mxCell>
        <mxCell id="llaD-ics2yoDDrk_v6Qx-10" value="&lt;div style=&quot;border-color: var(--border-color); text-align: right;&quot;&gt;compute commitments for all \( j \in [k]\)&lt;/div&gt;&lt;div style=&quot;border-color: var(--border-color); text-align: right;&quot;&gt;$$(\vec{y}_j, |st_j\rangle) \leftarrow \textcolor{green}{Commit}(PK, |\pi_j\rangle)$$&lt;/div&gt;" style="text;html=1;strokeColor=none;fillColor=none;align=center;verticalAlign=middle;whiteSpace=wrap;rounded=0;" vertex="1" parent="1">
          <mxGeometry x="78.5" y="430" width="200" height="30" as="geometry" />
        </mxCell>
        <mxCell id="llaD-ics2yoDDrk_v6Qx-11" value="\( \vec{y} = \{ \vec{y}_1, \cdots,&amp;nbsp;\vec{y}_k&lt;br&gt;\}\)" style="text;html=1;strokeColor=none;fillColor=none;align=center;verticalAlign=middle;whiteSpace=wrap;rounded=0;" vertex="1" parent="1">
          <mxGeometry x="340" y="440" width="60" height="30" as="geometry" />
        </mxCell>
        <mxCell id="llaD-ics2yoDDrk_v6Qx-12" value="\(c \xleftarrow{$} \{0,1\}\)" style="text;html=1;align=center;verticalAlign=middle;resizable=0;points=[];autosize=1;strokeColor=none;fillColor=none;" vertex="1" parent="1">
          <mxGeometry x="419" y="496" width="150" height="30" as="geometry" />
        </mxCell>
        <mxCell id="llaD-ics2yoDDrk_v6Qx-13" value="" style="endArrow=classic;html=1;rounded=0;" edge="1" parent="1">
          <mxGeometry width="50" height="50" relative="1" as="geometry">
            <mxPoint x="440" y="531" as="sourcePoint" />
            <mxPoint x="300" y="531" as="targetPoint" />
          </mxGeometry>
        </mxCell>
        <mxCell id="llaD-ics2yoDDrk_v6Qx-14" value="\( c \)" style="text;html=1;align=center;verticalAlign=middle;resizable=0;points=[];autosize=1;strokeColor=none;fillColor=none;" vertex="1" parent="1">
          <mxGeometry x="345" y="501" width="50" height="30" as="geometry" />
        </mxCell>
        <mxCell id="llaD-ics2yoDDrk_v6Qx-15" value="&lt;div style=&quot;border-color: var(--border-color); caret-color: rgb(0, 0, 0); color: rgb(0, 0, 0); font-family: Helvetica; font-size: 12px; font-style: normal; font-variant-caps: normal; font-weight: 400; letter-spacing: normal; text-align: right; text-indent: 0px; text-transform: none; word-spacing: 0px; -webkit-text-stroke-width: 0px; text-decoration: none;&quot;&gt;compute openings for all \( j \in [k]\)&lt;/div&gt;&lt;div style=&quot;border-color: var(--border-color); caret-color: rgb(0, 0, 0); color: rgb(0, 0, 0); font-family: Helvetica; font-size: 12px; font-style: normal; font-variant-caps: normal; font-weight: 400; letter-spacing: normal; text-align: right; text-indent: 0px; text-transform: none; word-spacing: 0px; -webkit-text-stroke-width: 0px; text-decoration: none;&quot;&gt;$$\vec{z}_j \leftarrow \textcolor{green}{Open}(|st_j\rangle, c_j)$$&lt;br&gt;&lt;/div&gt;" style="text;whiteSpace=wrap;html=1;" vertex="1" parent="1">
          <mxGeometry x="99.5" y="531" width="179" height="50" as="geometry" />
        </mxCell>
        <mxCell id="llaD-ics2yoDDrk_v6Qx-16" value="" style="endArrow=classic;html=1;rounded=0;" edge="1" parent="1">
          <mxGeometry width="50" height="50" relative="1" as="geometry">
            <mxPoint x="300" y="591" as="sourcePoint" />
            <mxPoint x="440" y="591" as="targetPoint" />
          </mxGeometry>
        </mxCell>
        <mxCell id="llaD-ics2yoDDrk_v6Qx-17" value="\( \vec{z} = \{ \vec{z}_1, \cdots,&amp;nbsp;\vec{z}_k&lt;br style=&quot;border-color: var(--border-color);&quot;&gt;\}\)" style="text;html=1;strokeColor=none;fillColor=none;align=center;verticalAlign=middle;whiteSpace=wrap;rounded=0;" vertex="1" parent="1">
          <mxGeometry x="340" y="561" width="60" height="30" as="geometry" />
        </mxCell>
        <mxCell id="llaD-ics2yoDDrk_v6Qx-18" value="&lt;div style=&quot;border-color: var(--border-color); text-align: left;&quot;&gt;for all \( j \in [k]\):&lt;/div&gt;&lt;div style=&quot;border-color: var(--border-color); text-align: left;&quot;&gt;&lt;br&gt;&lt;/div&gt;&lt;div style=&quot;border-color: var(--border-color); text-align: left;&quot;&gt;&lt;br&gt;&lt;/div&gt;&lt;div style=&quot;border-color: var(--border-color); text-align: left;&quot;&gt;&lt;span style=&quot;white-space: pre;&quot;&gt;&#x9;&lt;/span&gt;if \(c=0\) test round, check:&lt;/div&gt;&lt;div style=&quot;border-color: var(--border-color); text-align: left;&quot;&gt;&lt;span style=&quot;white-space: pre;&quot;&gt;&#x9;&lt;span style=&quot;white-space: pre;&quot;&gt;&#x9;&lt;/span&gt;&lt;/span&gt;\(\textcolor{blue}{Test}(PK, (\vec{y}_j, \vec{z}_j))=acc\)&lt;/div&gt;&lt;div style=&quot;border-color: var(--border-color); text-align: left;&quot;&gt;&lt;span style=&quot;white-space: pre;&quot;&gt;&#x9;&lt;/span&gt;if \(c=1\) output, check:&lt;/div&gt;&lt;div style=&quot;border-color: var(--border-color); text-align: left;&quot;&gt;&lt;span style=&quot;white-space: pre;&quot;&gt;&#x9;&lt;span style=&quot;white-space: pre;&quot;&gt;&#x9;&lt;/span&gt;&lt;/span&gt;\(\textcolor{red}{V_{FHM}}(x_j,\textcolor{blue}{Out}(SK, (\vec{y}_j, \vec{z}_j)))=acc\)&lt;/div&gt;" style="text;html=1;align=center;verticalAlign=middle;resizable=0;points=[];autosize=1;strokeColor=none;fillColor=none;" vertex="1" parent="1">
          <mxGeometry x="320" y="570" width="520" height="110" as="geometry" />
        </mxCell>
        <mxCell id="llaD-ics2yoDDrk_v6Qx-19" value="" style="endArrow=classic;html=1;rounded=0;" edge="1" parent="1">
          <mxGeometry width="50" height="50" relative="1" as="geometry">
            <mxPoint x="440" y="410" as="sourcePoint" />
            <mxPoint x="300" y="410" as="targetPoint" />
          </mxGeometry>
        </mxCell>
        <mxCell id="llaD-ics2yoDDrk_v6Qx-20" value="\( PK, FHE.Enc(i^*) \)&amp;nbsp;" style="text;html=1;align=center;verticalAlign=middle;resizable=0;points=[];autosize=1;strokeColor=none;fillColor=none;" vertex="1" parent="1">
          <mxGeometry x="300" y="380" width="140" height="30" as="geometry" />
        </mxCell>
        <mxCell id="llaD-ics2yoDDrk_v6Qx-21" value="&lt;div style=&quot;border-color: var(--border-color); text-align: left;&quot;&gt;Instance independent key generation&lt;/div&gt;&lt;div style=&quot;border-color: var(--border-color); text-align: left;&quot;&gt;&lt;span style=&quot;white-space: pre;&quot;&gt;&#x9;&lt;span style=&quot;white-space: pre;&quot;&gt;&#x9;&lt;/span&gt;&lt;/span&gt;\(r \xleftarrow{$} \{0,1\}^\lambda \)&lt;/div&gt;&lt;div style=&quot;border-color: var(--border-color); text-align: left;&quot;&gt;\((PK,SK)\leftarrow \textcolor{blue}{Gen}(1^\lambda, r)\)&lt;/div&gt;" style="text;html=1;align=center;verticalAlign=middle;resizable=0;points=[];autosize=1;strokeColor=none;fillColor=none;" vertex="1" parent="1">
          <mxGeometry x="385" y="330" width="320" height="60" as="geometry" />
        </mxCell>
        <mxCell id="llaD-ics2yoDDrk_v6Qx-22" value="" style="rounded=0;whiteSpace=wrap;html=1;fillColor=#d5e8d4;strokeColor=#82b366;imageHeight=18;imageAspect=1;" vertex="1" parent="1">
          <mxGeometry x="450" y="591" width="290" height="24" as="geometry" />
        </mxCell>
        <mxCell id="llaD-ics2yoDDrk_v6Qx-23" value="" style="shape=image;html=1;verticalAlign=top;verticalLabelPosition=bottom;labelBackgroundColor=#ffffff;imageAspect=0;aspect=fixed;image=https://cdn1.iconfinder.com/data/icons/unicons-line-vol-3/24/exclamation-triangle-128.png;imageBackground=none;" vertex="1" parent="1">
          <mxGeometry x="597" y="211" width="48" height="48" as="geometry" />
        </mxCell>
        <mxCell id="llaD-ics2yoDDrk_v6Qx-24" value="\( V_{VS}(x_j, y_j, z_j, r, c)\)" style="text;html=1;strokeColor=none;fillColor=none;align=center;verticalAlign=middle;whiteSpace=wrap;rounded=0;" vertex="1" parent="1">
          <mxGeometry x="520" y="590" width="130" height="30" as="geometry" />
        </mxCell>
      </root>
    </mxGraphModel>
  </diagram>
</mxfile>
